<?xml version="1.0" encoding="utf-8"?>
<!-- Generator: Adobe Illustrator 24.1.0, SVG Export Plug-In . SVG Version: 6.00 Build 0)  -->
<svg version="1.1" id="ffb55883-6880-4c99-84fd-4a8eccb5f463"
	 xmlns="http://www.w3.org/2000/svg" xmlns:xlink="http://www.w3.org/1999/xlink" x="0px" y="0px" viewBox="0 0 443.8 238.7"
	 style="enable-background:new 0 0 443.8 238.7;" xml:space="preserve">
<style type="text/css">
	.st0{fill:#FCFCFC;}
	.st1{fill:#12123A;}
	.st2{fill:#F24900;}
	.st3{opacity:0.3;enable-background:new    ;}
</style>
<rect x="14.4" y="29.4" class="st0" width="395" height="197.5"/>
<path class="st1" d="M443.8,199.5h-397V0h397V199.5z M48.7,197.5h393V2h-393L48.7,197.5z"/>
<path class="st2" d="M244.1,162.3c0,8.9-7.2,16.1-16.2,16.1c-8.9,0-16.1-7.2-16.1-16.1c0-8.9,7.2-16.1,16.1-16.1
	C236.8,146.1,244.1,153.3,244.1,162.3C244.1,162.2,244.1,162.3,244.1,162.3z"/>
<path class="st3" d="M244.1,162.3c0,8.9-7.2,16.1-16.2,16.1c-8.9,0-16.1-7.2-16.1-16.1c0-8.9,7.2-16.1,16.1-16.1
	C236.8,146.1,244.1,153.3,244.1,162.3C244.1,162.2,244.1,162.3,244.1,162.3z"/>
<path class="st2" d="M273.3,80.9c0,5.3-1.1,10.5-3.2,15.3c-0.9,2.1-2,4.1-3.3,6c-2.6,3.8-5.8,7.3-9.4,10.2c-0.6,0.5-1.3,1.1-2.2,1.8
	c-1.1,0.9-2.4,1.7-3.9,2.7c-2.6,1.7-5.1,3.5-7.4,5.4c-1.4,1.1-2.6,2.4-3.6,3.9c-1.2,2.1-1.9,6.3-1.9,12.4v1h-27v-4.7
	c0-3.7,0.1-6.7,0.3-9.4c0.1-2.4,0.4-4.8,0.8-7.2c0.3-2.1,0.9-4.2,1.9-6c1.8-3,6-7,13-12.3c0.3-0.2,0.6-0.5,0.9-0.7
	c0.3-0.2,0.6-0.4,0.9-0.6c2.4-1.7,4.7-3.7,6.7-5.9c0.6-0.7,1.1-1.4,1.6-2.2l0.1-0.2c1.6-2.8,2.3-5.9,2.2-9.1c0-0.8,0-1.6-0.2-2.4
	c-0.3-3.1-1.8-6-4.1-8.1c-2.5-2.3-5.7-3.6-9.1-3.8c-0.4,0-0.8,0-1.2,0c-1.6,0-3.2,0.2-4.7,0.6c-2.9,0.7-5.5,2.3-7.4,4.6
	c-1,1.2-1.9,2.5-2.6,4c-2.4,5.5-3.9,11.2-4.5,17.1l-0.1,1l-25.4-6.8V76.2c0.1-0.5,0.2-0.9,0.4-1.3c1.6-5.6,4.2-10.9,7.6-15.6
	c1.5-2,3.1-3.9,4.9-5.6c0.4-0.4,0.9-0.9,1.4-1.3c3.1-2.7,6.4-4.9,10.1-6.6l0.3-0.1c6.9-3.2,14.4-4.8,22-4.7c0.8,0,1.7,0,2.6,0.1
	c7.6,0.2,15,2.1,21.7,5.5c3,1.6,5.8,3.5,8.4,5.7c7.2,5.9,11.9,14.4,13,23.7C273.2,77.5,273.3,79.2,273.3,80.9z"/>
<path class="st3" d="M273.3,80.9c0,5.3-1.1,10.5-3.2,15.3c-0.9,2.1-2,4.1-3.3,6c-2.6,3.8-5.8,7.3-9.4,10.2c-0.6,0.5-1.3,1.1-2.2,1.8
	c-1.1,0.9-2.4,1.7-3.9,2.7c-2.6,1.7-5.1,3.5-7.4,5.4c-1.4,1.1-2.6,2.4-3.6,3.9c-1.2,2.1-1.9,6.3-1.9,12.4v1h-27v-4.7
	c0-3.7,0.1-6.7,0.3-9.4c0.1-2.4,0.4-4.8,0.8-7.2c0.3-2.1,0.9-4.2,1.9-6c1.8-3,6-7,13-12.3c0.3-0.2,0.6-0.5,0.9-0.7
	c0.3-0.2,0.6-0.4,0.9-0.6c2.4-1.7,4.7-3.7,6.7-5.9c0.6-0.7,1.1-1.4,1.6-2.2l0.1-0.2c1.6-2.8,2.3-5.9,2.2-9.1c0-0.8,0-1.6-0.2-2.4
	c-0.3-3.1-1.8-6-4.1-8.1c-2.5-2.3-5.7-3.6-9.1-3.8c-0.4,0-0.8,0-1.2,0c-1.6,0-3.2,0.2-4.7,0.6c-2.9,0.7-5.5,2.3-7.4,4.6
	c-1,1.2-1.9,2.5-2.6,4c-2.4,5.5-3.9,11.2-4.5,17.1l-0.1,1l-25.4-6.8V76.2c0.1-0.5,0.2-0.9,0.4-1.3c1.6-5.6,4.2-10.9,7.6-15.6
	c1.5-2,3.1-3.9,4.9-5.6c0.4-0.4,0.9-0.9,1.4-1.3c3.1-2.7,6.4-4.9,10.1-6.6l0.3-0.1c6.9-3.2,14.4-4.8,22-4.7c0.8,0,1.7,0,2.6,0.1
	c7.6,0.2,15,2.1,21.7,5.5c3,1.6,5.8,3.5,8.4,5.7c7.2,5.9,11.9,14.4,13,23.7C273.2,77.5,273.3,79.2,273.3,80.9z"/>
<path class="st2" d="M233.1,162.3c0,8.9-7.2,16.1-16.2,16.1c-8.9,0-16.1-7.2-16.1-16.1c0-8.9,7.2-16.1,16.1-16.1
	C225.8,146.1,233.1,153.3,233.1,162.3C233.1,162.2,233.1,162.3,233.1,162.3z"/>
<path class="st2" d="M262.3,80.9c0,5.3-1.1,10.5-3.2,15.3c-0.9,2.1-2,4.1-3.3,6c-2.6,3.8-5.8,7.3-9.4,10.2c-0.6,0.5-1.3,1.1-2.2,1.8
	c-1.1,0.9-2.4,1.7-3.9,2.7c-2.6,1.7-5.1,3.5-7.4,5.4c-1.4,1.1-2.6,2.4-3.6,3.9c-1.2,2.1-1.9,6.3-1.9,12.4v1h-27v-4.7
	c0-3.7,0.1-6.7,0.3-9.4c0.1-2.4,0.4-4.8,0.8-7.2c0.3-2.1,0.9-4.2,1.9-6c1.8-3,6-7,13-12.3c0.3-0.2,0.6-0.5,0.9-0.7
	c0.3-0.2,0.6-0.4,0.9-0.6c2.4-1.7,4.7-3.7,6.7-5.9c0.6-0.7,1.1-1.4,1.6-2.2l0.1-0.2c1.6-2.8,2.3-5.9,2.2-9.1c0-0.8,0-1.6-0.2-2.4
	c-0.3-3.1-1.8-6-4.1-8.1c-2.5-2.3-5.7-3.6-9.1-3.8c-0.4,0-0.8,0-1.2,0c-1.6,0-3.2,0.2-4.7,0.6c-2.9,0.7-5.5,2.3-7.4,4.6
	c-1,1.2-1.9,2.5-2.6,4c-1.8,3.6-3,8.4-3.5,14.1l-0.1,1L167.3,87l0.1-1c0.5-3.8,1.3-7.6,2.4-11.2c1.6-5.6,4.2-10.9,7.6-15.6
	c1.5-2,3.1-3.9,4.9-5.6c0.4-0.4,0.9-0.9,1.4-1.3c3.1-2.7,6.4-4.9,10.1-6.6l0.3-0.1c6.9-3.2,14.4-4.8,22-4.7c0.8,0,1.7,0,2.6,0.1
	c7.6,0.2,15,2.1,21.7,5.5c3,1.6,5.8,3.5,8.4,5.7c7.2,5.9,11.9,14.4,13,23.7C262.2,77.5,262.3,79.2,262.3,80.9z"/>
</svg>
