<?xml version="1.0" encoding="utf-8"?>
<!-- Generator: Adobe Illustrator 24.1.0, SVG Export Plug-In . SVG Version: 6.00 Build 0)  -->
<svg version="1.1" id="_x37_5ec1790-e4b7-40a0-8812-a9d39b2e2dcc"
	 xmlns="http://www.w3.org/2000/svg" xmlns:xlink="http://www.w3.org/1999/xlink" x="0px" y="0px" viewBox="0 0 1152.1 771.1"
	 style="enable-background:new 0 0 1152.1 771.1;" xml:space="preserve">
<style type="text/css">
	.st0{opacity:0.1;fill:#F24900;enable-background:new    ;}
	.st1{opacity:0.5;}
	.st2{fill:#F24900;}
	.st3{opacity:0.2;fill:#FFFFFF;enable-background:new    ;}
	.st4{opacity:6.000000e-02;enable-background:new    ;}
	.st5{fill:#A1616A;}
	.st6{fill:#12123A;}
	.st7{fill:#FBBEBE;}
	.st8{opacity:3.000000e-02;enable-background:new    ;}
	.st9{fill:#464353;}
	.st10{opacity:6.000000e-02;}
</style>
<path class="st0" d="M669.4,127.1c-73.9-2.6-144.2-26.4-211.3-52.5s-133.7-55-205.8-68.8c-46.4-8.9-99.5-10.1-136.8,14.7
	C79.5,44.5,67.9,85.8,61.6,124.1c-4.7,28.8-7.5,59.2,5.4,86.2c8.9,18.7,24.8,34.5,35.8,52.4c38.2,62.4,11.2,139.5-30.2,200.4
	c-19.4,28.6-41.9,55.9-56.9,86.3s-21.9,65.3-8.8,96.4c13,30.8,43.9,53.9,77.5,70.2c68.1,33,148.4,42.5,226.7,47.8
	c173.3,11.8,347.5,6.7,521.2,1.6c64.3-1.9,128.9-3.8,192.1-13.8c35.1-5.5,71.4-14.3,96.9-35.4c32.4-26.8,40.4-72.3,18.7-106
	c-36.4-56.5-137-70.5-162.4-131.1c-14-33.4,0.4-70.5,20.7-101.5c43.6-66.4,116.8-124.6,120.6-200.5c2.6-52.1-32.5-104.3-86.9-129
	C975,22.3,896,25.6,854,68.4C810.7,112.4,734.6,129.4,669.4,127.1z"/>
<g class="st1">
	<polygon class="st2" points="500.8,402.6 467.3,403.3 461.8,410.8 461.8,436.7 468.7,441.5 500.8,441.5 507.6,434 507.6,409.4 	"/>
	<path class="st3" d="M500.1,406.7c0,0-30.7,4.8-33.5,0l0.7-3.4l32.8-0.7V406.7z"/>
	<path class="st2" d="M503.5,477.7l5.5,5.5v26l-5.5,5.4c0,0-19.8,6.8-32.8,1.4l-6.1-6.1v-26l5.5-6.2L503.5,477.7z"/>
	<path class="st3" d="M502.1,483.8c0,0-23.9,5.5-32.1,0v-6.2h33.5L502.1,483.8z"/>
	<path class="st2" d="M490.5,441.3v36.9c-0.2,3-2.8,5.4-5.8,5.2l0,0c-3,0.1-5.6-2.2-5.8-5.2v-36.9c0-3.1,3-5.6,6.5-5.2l0,0
		C488.2,436.3,490.4,438.5,490.5,441.3z"/>
	<polygon class="st2" points="554.3,403.6 520.9,404.3 515.4,411.8 515.4,437.8 522.2,442.6 554.3,442.6 561.2,435 561.2,410.5 	"/>
	<path class="st3" d="M553.7,407.7c0,0-30.7,4.8-33.5,0l0.7-3.4l32.8-0.7V407.7z"/>
	<path class="st2" d="M557.1,478.8l5.5,5.5v26l-5.5,5.4c0,0-19.8,6.8-32.8,1.4l-6.2-6.1v-26l5.5-6.2L557.1,478.8z"/>
	<path class="st3" d="M555.7,484.9c0,0-23.9,5.5-32.1,0v-6.1h33.4L555.7,484.9z"/>
	<path class="st2" d="M544.1,442.4v36.9c-0.2,3-2.8,5.4-5.8,5.2l0,0c-3,0.1-5.6-2.2-5.8-5.2v-36.9c0-3.1,3-5.6,6.5-5.2l0,0
		C541.7,437.3,543.9,439.6,544.1,442.4z"/>
	<polygon class="st2" points="622.6,423.4 595,424 590.5,430.1 590.5,451.5 596.1,455.4 622.6,455.4 628.2,449.2 628.2,429 	"/>
	<path class="st3" d="M622,426.8c0,0-25.3,3.9-27.5,0l0.6-2.8l27-0.6L622,426.8z"/>
	<path class="st2" d="M624.8,485.2l4.5,4.5v21.4l-4.5,4.5c0,0-16.3,5.6-27,1.1l-5.1-5.1v-21.4l4.5-5.1H624.8z"/>
	<path class="st3" d="M623.7,490.3c0,0-19.7,4.5-26.4,0v-5.1h27.5L623.7,490.3z"/>
	<path class="st2" d="M614.1,455.3v30.4c-0.1,2.5-2.3,4.4-4.8,4.3l0,0c-2.5,0.1-4.6-1.8-4.8-4.3v-30.4c0.2-2.5,2.3-4.5,4.9-4.3
		c0.1,0,0.3,0,0.4,0l0,0C612.2,451.1,614,453,614.1,455.3z"/>
	<polygon class="st2" points="666.7,424.3 639.1,424.8 634.6,431 634.6,452.4 640.3,456.3 666.7,456.3 672.3,450.1 672.3,429.9 	"/>
	<path class="st3" d="M666.1,427.6c0,0-25.3,3.9-27.5,0l0.6-2.8l27-0.6L666.1,427.6z"/>
	<path class="st2" d="M668.9,486.1l4.5,4.5V512l-4.5,4.5c0,0-16.3,5.6-27,1.1l-5-5v-21.4l4.5-5.1H668.9z"/>
	<path class="st3" d="M667.8,491.2c0,0-19.7,4.5-26.4,0v-5.1h27.5L667.8,491.2z"/>
	<path class="st2" d="M658.2,456.1v30.4c-0.1,2.5-2.3,4.4-4.8,4.3l0,0c-2.5,0.1-4.6-1.8-4.8-4.3v-30.4c0-2.6,2.5-4.6,5.3-4.3l0,0
		C656.3,452,658.1,453.9,658.2,456.1z"/>
</g>
<path class="st4" d="M837.8,302.8c-3.9,2.6-5.3,7.8-5.8,12.5c-2.1,20.1,6.2,39.9,5.6,60.1c-0.4,16-6.4,31.4-12.3,46.3
	c-10.1,25.5-15.3,53.1-17.3,80.4s-5,55.8-19.7,78.8c-3.3,5.2-7.2,10.1-10.5,15.3c-3.4,5.5-6.1,11.4-9.2,17.1
	c-8.9,16.9-20.4,32.3-34,45.7c-4,3.9-8.2,7.7-13.3,9.9c-6.6,2.9-14.2,3-20.9,0.2c-6.8-2.8-12.6-9.2-12.9-16.6
	c-0.2-6.6,3.7-12.6,7.7-17.9c13.4-18,28.9-34.3,46-48.8c3.1-2.6,6.4-5.3,8-9.1c1.8-4.3,1.1-9.2,1.3-13.9c0.4-7.5,3.3-14.5,5-21.8
	c7-29.5-5.4-61.7,4.7-90.3c2.2-6.3,5.6-12.4,6.4-19.1c0.6-4.7-0.6-9.9-3.5-13.4c-2.7-3.2-4.3-7.2-4.3-11.4c0-0.9,0-1.7,0.1-2.5
	c1.2-13.1,2.4-26.2,1.8-39.4s-3.3-26.3-9.3-38c-3.1-6-7.2-11.7-9.1-18.2c-3.1-10.6-0.2-22,4.4-32c3.6-7.8,8.5-15.3,15.2-20.6
	c12.6-10,31.4-11.1,45.1-2.9c10.1,6.1,17.1,16.3,22.7,26.6C833.6,287.7,837.8,294.2,837.8,302.8z"/>
<path class="st5" d="M804.5,223.1c-1.9,5.2-3.8,10.4-5.7,15.5c-1.3,3.4-2.5,6.8-3.8,10.2c-6,15.7-12.7,31.1-23.2,44.1
	c1.6-1.9-13.2-11.7-24.1-18.4c-5.3-3.3-9.7-5.8-10.8-6.3c-2.6-1.2-5.2-2.2-7.9-3.1c-4.2-1.4-8.3-2.6-12.5-4.1
	c-9.6-3.5-2.9-8.7,1.2-14.3c13.5-18.3,16-43.4,31.3-60.2c5.6,10.6,14.5,19.2,25.3,24.5c0.2,0.1,0.4,0.2,0.7,0.3
	c9.1,4.2,19.1,6.1,28.5,9.6c0.5,0.2,1.1,0.5,1.3,1C804.7,222.4,804.6,222.8,804.5,223.1z"/>
<path class="st5" d="M778.3,593.5c-8.8,12.6-10.6,28.9-4.7,43.2c0.7,2,1.9,3.7,3.4,5.2c1.9,1.5,4.1,2.5,6.4,3
	c19.9,5.7,41.1,4.5,61.4,1c6.9-1.1,13.7-2.8,20.2-5.2c10.1-3.8,19.1-10,27.9-16.1l18.8-12.9c6.1-4.2,12.2-8.4,19-11.3
	c10.4-4.5,21.9-5.8,33.2-5.8c9.7,0,19.4,0.9,29,2.8c6.4,1.2,14,2.5,18.5-2.2c2.6-2.6,3.3-6.5,3.8-10.1c2-14.1,1.9-28.5-0.1-42.6
	c-0.1-1.2-0.5-2.3-1.2-3.2c-0.7-0.6-1.6-1-2.5-1.1c-8.8-2-17.7,2.2-26.3,5c-17.9,5.9-37.1,6.7-55.2,11.5
	c-19.1,5.1-37,14.8-56.7,16.8c-9.4,0.9-18.8,0.1-28.3,0.3c-8.7,0.2-16.9,3.2-25.5,3.6C803.1,576.1,788.7,579,778.3,593.5z"/>
<path class="st4" d="M778.3,593.5c-8.8,12.6-10.6,28.9-4.7,43.2c0.7,2,1.9,3.7,3.4,5.2c1.9,1.5,4.1,2.5,6.4,3
	c19.9,5.7,41.1,4.5,61.4,1c6.9-1.1,13.7-2.8,20.2-5.2c10.1-3.8,19.1-10,27.9-16.1l18.8-12.9c6.1-4.2,12.2-8.4,19-11.3
	c10.4-4.5,21.9-5.8,33.2-5.8c9.7,0,19.4,0.9,29,2.8c6.4,1.2,14,2.5,18.5-2.2c2.6-2.6,3.3-6.5,3.8-10.1c2-14.1,1.9-28.5-0.1-42.6
	c-0.1-1.2-0.5-2.3-1.2-3.2c-0.7-0.6-1.6-1-2.5-1.1c-8.8-2-17.7,2.2-26.3,5c-17.9,5.9-37.1,6.7-55.2,11.5
	c-19.1,5.1-37,14.8-56.7,16.8c-9.4,0.9-18.8,0.1-28.3,0.3c-8.7,0.2-16.9,3.2-25.5,3.6C803.1,576.1,788.7,579,778.3,593.5z"/>
<path class="st6" d="M794.5,572.4c-0.5,2.2-0.9,4.5-0.2,6.7c0.8,2.1,2.2,4,4,5.4c17,15.2,41.3,18.4,64,20.8
	c6.2,0.7,12.4,1.3,18.5,0.2c5.5-1,10.7-3.5,15.8-5.9c11-5.2,22.1-10.5,31.5-18.1c9.2-7.5,16.7-17.1,26.2-24.2
	c10.9-8,24.3-12.6,34-22c7-6.8,11.7-15.6,13.3-25.3c1.1-6.6,0.7-13.3,0-19.9c-0.8-7.6-2.1-15.3-5.7-22.1
	c-4.2-7.8-11.2-13.7-18.7-18.5c-15.7-10.2-34.2-16.6-53-16.4c-26,0.2-50,15.4-68.7,32.3c-19.7,18-35.7,39.7-47,63.9
	C802.3,543.2,797.5,557.6,794.5,572.4z"/>
<path class="st5" d="M837.8,302.8c-3.9,2.6-5.3,7.8-5.8,12.5c-2.1,20.1,6.2,39.9,5.6,60.1c-0.4,16-6.4,31.4-12.3,46.3
	c-10.1,25.5-15.3,53.1-17.3,80.4s-5,55.8-19.7,78.8c-3.3,5.2-7.2,10.1-10.5,15.3c-3.4,5.5-6.1,11.4-9.2,17.1
	c-8.9,16.9-20.4,32.3-34,45.7c-4,3.9-8.2,7.7-13.3,9.9c-6.6,2.9-14.2,3-20.9,0.2c-6.8-2.8-12.6-9.2-12.9-16.6
	c-0.2-6.6,3.7-12.6,7.7-17.9c13.4-18,28.9-34.3,46-48.8c3.1-2.6,6.4-5.3,8-9.1c1.8-4.3,1.1-9.2,1.3-13.9c0.4-7.5,3.3-14.5,5-21.8
	c7-29.5-5.4-61.7,4.7-90.3c2.2-6.3,5.6-12.4,6.4-19.1c0.6-4.7-0.6-9.9-3.5-13.4c-2.7-3.2-4.3-7.2-4.3-11.4c0-0.9,0-1.7,0.1-2.5
	c1.2-13.1,2.4-26.2,1.8-39.4s-3.3-26.3-9.3-38c-3.1-6-7.2-11.7-9.1-18.2c-3.1-10.6-0.2-22,4.4-32c3.6-7.8,8.5-15.3,15.2-20.6
	c12.6-10,31.4-11.1,45.1-2.9c10.1,6.1,17.1,16.3,22.7,26.6C833.6,287.7,837.8,294.2,837.8,302.8z"/>
<ellipse class="st5" cx="782.5" cy="310.6" rx="37.8" ry="59.4"/>
<path class="st7" d="M686,621c2.3,3.2,3,7.2,2,11c3.6,2.6,7.9,3.8,12.3,3.6c4.4-0.2,8.6-1.2,12.7-2.9c3.5-1.3,6.8-3,9.8-5.2
	c5.2-3.9,9-9.4,12-15.1c1.7-3.2,3.1-7.2,1-10.1c-0.8-1-1.9-1.8-3-2.3c-7.7-4.4-15.7-8.2-24-11.4c-2.3-1-4.7-1.6-7.2-1.6
	c-3.1,0.2-5.9,1.8-8.3,3.7c-5.5,4.3-9.9,9.7-12.9,16c-0.9,2-3.8,6.8-2.4,8.8c0.6,1,3,1.3,4,1.9C683.5,618.3,684.9,619.5,686,621z"/>
<path class="st8" d="M686,621c2.3,3.2,3,7.2,2,11c3.6,2.6,7.9,3.8,12.3,3.6c4.4-0.2,8.6-1.2,12.7-2.9c3.5-1.3,6.8-3,9.8-5.2
	c5.2-3.9,9-9.4,12-15.1c1.7-3.2,3.1-7.2,1-10.1c-0.8-1-1.9-1.8-3-2.3c-7.7-4.4-15.7-8.2-24-11.4c-2.3-1-4.7-1.6-7.2-1.6
	c-3.1,0.2-5.9,1.8-8.3,3.7c-5.5,4.3-9.9,9.7-12.9,16c-0.9,2-3.8,6.8-2.4,8.8c0.6,1,3,1.3,4,1.9C683.5,618.3,684.9,619.5,686,621z"/>
<path class="st6" d="M727.4,597.8c16.9,3.1,32.5,11.3,49.1,15.7c6.7,1.8,13.7,3,20.1,5.6s12.5,7.1,15.3,13.5
	c1.2,3.1,1.9,6.3,2.3,9.5c0.7,4.6,1.3,9.8-1.4,13.5c-2.9,4-8.3,4.9-13.2,5.5c-17.6,2.1-35.2,4.2-52.8,5.7c-3.6,0.2-7.1,0.6-10.7,1.3
	c-2.9,0.6-5.7,1.5-8.6,2.1c-3.7,0.9-7.5,1.4-11.3,2c-9.7,1.4-19.5,2.8-29.2,1.7c-4.4-0.5-9.4-1.9-11.3-5.9c-0.8-2.1-1.2-4.3-1-6.5
	c0-5.9-0.1-11.9,0-17.8c0.1-6.1,0.4-12.4,3.2-17.8c0.7-1.7,2-3,3.6-3.8c1-0.3,2.1-0.4,3.1-0.3c5.2,0.2,10.6,0.4,15.2,2.7
	c3.7,1.8,6.7,4.9,10.5,6.5c7.1,3.2,15.7,0.9,22.9,3.9c1.7-5.2,1.3-10.4,0-15.7s-3-10.5-3.5-15.9c0-1.2-0.3-2.4-0.7-3.5
	C728.4,598.7,728.6,597.6,727.4,597.8z"/>
<path class="st7" d="M162.2,427.3c-3.4-1.1-6.7,1.9-8.6,5c-7.9,12.5-7.3,29.1-0.9,42.5c1.5,3.4,3.6,6.5,6.2,9.2
	c3.4,3.4,7.9,5.6,12,8c11.5,6.8,21.3,16,28.8,27c4.9,7.2,8.7,15.1,14.3,21.8c13.7,16.5,36.1,24,49.4,40.8c3.2,4,5.9,8.6,10.1,11.5
	c7.8,5.4,18.5,3.4,23.8-4.4c1.8-2.6,2.8-5.7,3-8.9c5.1-7.6,9.4-15.9,13.4-24.2c5.9-12.6,10.9-25.6,15-38.9c1.5-4.7,2.9-9.4,4.8-14
	c4.7-11.3,12.2-21.5,14.8-33.4c1.1-4.8,1.3-9.8,2.9-14.4c1.4-4.2,3.7-7.9,6.9-11c10.4-10.1,16-24.8,24.3-36.7
	c3.4-4.8,6.9-9.6,9.1-15s3.1-11.7,1-17.2s-7.5-9.9-13.3-9.6c-2.6,0.3-5.2,1.1-7.5,2.3c-8.1,3.8-15.5,8.9-21.9,15.1
	c-2.8,2.7-5.5,5.6-8,8.6c-12.2,14.6-21.8,32.3-22.6,51.3c-0.3,6.5,0.2,13.7-3.9,18.8c-11.4,14-15.1,33.1-24.8,48.3
	c-4.5,7-9.7,14.2-17.4,17.4c-1.1,0.5-2.4,0.8-3.7,0.7c-3.1-0.3-4.9-3.6-6.1-6.4c-5.1-11-11-21.6-17.6-31.8c-2.6-4-5.5-8.1-9.7-10.5
	c-2.9-1.6-6.2-2.3-8.9-4.2c-3.8-2.6-5.7-7-7.7-11.1c-6.3-13.3-14.3-25.8-23.8-37.1c-4.3-5.2-10.1-10.5-16.8-9.7
	C172.1,418.1,168.2,424.8,162.2,427.3z"/>
<path class="st8" d="M162.2,427.3c-3.4-1.1-6.7,1.9-8.6,5c-7.9,12.5-7.3,29.1-0.9,42.5c1.5,3.4,3.6,6.5,6.2,9.2
	c3.4,3.4,7.9,5.6,12,8c11.5,6.8,21.3,16,28.8,27c4.9,7.2,8.7,15.1,14.3,21.8c13.7,16.5,36.1,24,49.4,40.8c3.2,4,5.9,8.6,10.1,11.5
	c7.8,5.4,18.5,3.4,23.8-4.4c1.8-2.6,2.8-5.7,3-8.9c5.1-7.6,9.4-15.9,13.4-24.2c5.9-12.6,10.9-25.6,15-38.9c1.5-4.7,2.9-9.4,4.8-14
	c4.7-11.3,12.2-21.5,14.8-33.4c1.1-4.8,1.3-9.8,2.9-14.4c1.4-4.2,3.7-7.9,6.9-11c10.4-10.1,16-24.8,24.3-36.7
	c3.4-4.8,6.9-9.6,9.1-15s3.1-11.7,1-17.2s-7.5-9.9-13.3-9.6c-2.6,0.3-5.2,1.1-7.5,2.3c-8.1,3.8-15.5,8.9-21.9,15.1
	c-2.8,2.7-5.5,5.6-8,8.6c-12.2,14.6-21.8,32.3-22.6,51.3c-0.3,6.5,0.2,13.7-3.9,18.8c-11.4,14-15.1,33.1-24.8,48.3
	c-4.5,7-9.7,14.2-17.4,17.4c-1.1,0.5-2.4,0.8-3.7,0.7c-3.1-0.3-4.9-3.6-6.1-6.4c-5.1-11-11-21.6-17.6-31.8c-2.6-4-5.5-8.1-9.7-10.5
	c-2.9-1.6-6.2-2.3-8.9-4.2c-3.8-2.6-5.7-7-7.7-11.1c-6.3-13.3-14.3-25.8-23.8-37.1c-4.3-5.2-10.1-10.5-16.8-9.7
	C172.1,418.1,168.2,424.8,162.2,427.3z"/>
<ellipse class="st7" cx="161.5" cy="355.7" rx="26.4" ry="23.8"/>
<circle class="st7" cx="186.2" cy="350.8" r="9.5"/>
<ellipse class="st7" cx="165" cy="346" rx="36.3" ry="9.7"/>
<path class="st7" d="M132.6,343.9c0.9,2.8,1.6,5.7,2.1,8.5c-3-3.1-5.7-6.6-7.9-10.3c-0.6-0.6-1.1-1.4-1.4-2.2
	c-3.2-7.5-5.4-15.2-5.4-23.4c0-28.4,23-51.4,51.4-51.4c28.4,0,51.4,23,51.4,51.4c0,23.2-15.5,43.5-37.9,49.6c1.6-5.1,3.7-10,4-15.2
	c0.2-1.8-0.1-3.5-0.7-5.2c-0.9-1.7-2.2-3.2-3.8-4.3c-5.7-4.4-13.1-6.3-20.3-6.2c-7.2,0.3-14.3,2-20.9,5c-2.1,0.9-4.6,2.1-7,2.9
	C135,343.5,133.8,343.8,132.6,343.9z"/>
<path class="st7" d="M262.8,456.3c-3.3,5.3-10.3,6.9-16.5,6.4c-11.5-0.8-22-7-30.9-14.4s-16.7-16-25.8-23.1
	c-16.9-13.3-36-18.6-57.5-18.9c4.2-3.5,2.7-11.8,3-17.2c0.7-11,1.4-22.3,0-33.1c-0.1-1.2-0.3-2.3-0.5-3.5c0.3,0.4,0.7,0.7,1.1,1.1
	c13,12.5,31.7,17.3,49.1,12.5c-0.6,1.7-1,3.5-1.3,5.3c-1.2,7.7,0.8,15.6,2.9,23.1c1.2,4.5,2.7,9.4,6.4,12.2c2.4,1.8,5.5,2.6,8.3,3.5
	c5.7,1.9,11,5,15.5,9c3.2,2.8,6,6,9.4,8.4c3.2,2,6.6,3.8,10.2,5.2c8.7,4,16.8,9,24.4,14.8c1.4,0.9,2.5,2.2,3.2,3.8
	C264.1,453.2,263.8,454.9,262.8,456.3z"/>
<path class="st7" d="M321.9,553.2c-0.7,4.6-4.9,8.1-7.8,11.7c-8,9.7-16.1,19.4-25.1,28.3c-9.6,9.5-20.1,17.9-30.7,26.3l-13.7,10.9
	c-1.7,1.5-3.7,2.7-5.8,3.5c-2.5,0.6-5.2,0.3-7.5-0.9c-0.9-0.4-1.8-1-2.6-1.6c-2.8-2.2-4.9-5.2-6.9-8.2c-9.2-13.5-18.5-27-27.7-40.5
	c-3.3-4.8-6.5-9.8-9.8-14.7c-0.4-0.6-0.8-1.3-1.3-1.9c-2.9-4.5-5.9-9-8.9-13.3l-16.5-7.7l-2.2-1l-2.6-1.2c-3.4-1.6-6.8-3.2-9.6-5.7
	c-2.7-2.5-4.9-5.5-6.6-8.8c-3.3-6.1-6.2-12.4-8.6-18.9c-7-17.7-13.2-36.1-13.4-55.1c-0.2-16.7,4.7-34.1,15.8-46.4
	c1.5-1.7,3.2-3.3,4.9-4.7c2.1-1.8,4.4-2.8,7.1-2.5c2.8,0.4,5.4,0.8,8,1.2c7.3,1.3,14.5,2.8,21.7,4.6c6.5,1.7,13.1,3.5,19.7,2.2
	c1.1-0.2,2.1-0.5,3.1-0.8c0.9-0.2,1.7-0.4,2.6-0.6c0.5-0.1,1-0.1,1.5-0.2c3.5-0.2,6.8,1.2,10,2.6c6.1,2.6,12.4,5.4,17,10.2
	c2.7,2.9,4.8,6.5,7.7,9.2c3.9,3.7,9.1,5.5,13.8,8.1c0.9,0.5,1.8,1.1,2.6,1.7c1.8,1.4,3.5,3,5,4.8l0,0c6.1,7.1,9.7,16.8,16.4,23.9
	c5.4,5.7,10,12,13.9,18.8c0.6,1.1,1.2,2.3,1.8,3.4c1,1.9,1.9,3.9,2.8,5.9c0.2,0.5,0.4,1,0.6,1.5c1.3,3,2.4,6.1,3.3,9.2
	c2.3,7.5,3.8,15.7,8.8,21.8c3.5,4.2,8.4,7,12.5,10.6c2.6,2.2,4.7,5.1,6.1,8.3C321.9,549.1,322.2,551.2,321.9,553.2z"/>
<path class="st4" d="M294.1,493.1c-1.1,1.4-2.3,2.9-3.5,4.3c-0.2,0.3-0.4,0.5-0.6,0.8c-10.5,12.3-22.6,23.2-35.9,32.5
	c-8.2,5.7-16.9,10.8-25.5,15.9l-16,9.4c-6.7,3.9-13.5,7.9-20.9,10.2c-2.4,0.7-4.9,1.3-7.3,2c-0.4-0.6-0.8-1.3-1.3-1.9
	c-2.9-4.5-5.9-9-8.9-13.3l-16.5-7.7c9.1-5.7,17.2-13,23.9-21.4c10-12.3,17.7-26.4,25.3-40.4c1.3-2.3,2.4-4.7,3.1-7.2
	c1-4.2,0.2-8.6-1.1-12.7c-4.5-14.8-14-27.5-26.8-36.1c-9-6-19.2-9.6-29.4-13.2c-7.1-2.5-14.9-4.8-22.1-3.8c1.5-1.7,3.2-3.3,4.9-4.7
	c2.1-1.8,4.4-2.9,7.1-2.5s5.4,0.8,8,1.2c5.4,1.6,10.6,3.6,15.8,5.6c3.4,1.3,6.8,2.8,10,4.5c3.2,2,6.3,4.1,9.2,6.5
	c8.7,6.6,17.8,12.6,27.3,17.9c11,6.1,22.5,11,34.1,16c1.2,0.6,2.6,1,4,1c1.4,0,2.7-1,3-2.3c0-0.7-0.1-1.5-0.5-2.1
	c-2-4.1-6.5-6.1-10.6-8.1c-17.1-8.3-32.1-20.1-46.9-32c-0.4-0.3-0.7-0.6-0.9-1l2.6-0.6c16.6,11.9,34.1,22.5,52.5,31.6
	c1,0.5,1.9,1,2.9,1.4c0.7,0.4,1.4,0.7,2.1,1l0,0c4.9,2.4,9.9,5,13.6,9c2.4,2.8,4.4,5.8,6,9.1c4.1,7.7,7.6,15.7,10.4,24
	c0.1,0.2,0.1,0.4,0.2,0.5c0.4,1.3,1,2.4,1.8,3.4c0.3,0.3,0.7,0.6,1,0.8C289.9,491.8,292.5,491.7,294.1,493.1z"/>
<path class="st2" d="M197.5,407.5c16.6,11.9,34.1,22.5,52.4,31.6l2.9,1.5c5.6,2.7,11.4,5.5,15.7,10c2.4,2.8,4.4,5.8,6,9.1
	c4.1,7.7,7.6,15.7,10.4,24c0.6,1.8,1.4,3.8,3.1,4.8s4.4,0.9,5.9,2.3c-1.4,1.7-2.7,3.4-4.2,5c-10.5,12.3-22.6,23.2-35.9,32.5
	c-8.2,5.7-16.9,10.8-25.5,15.9l-16,9.4c-6.7,3.9-13.5,7.9-20.9,10.1c-2.8,0.8-5.7,1.5-8.6,2.3c-2.9-4.5-5.9-9-8.9-13.3l-18.6-8.7
	c10-5.7,18.7-13.7,26-22.7c10-12.3,17.7-26.4,25.3-40.3c1.3-2.3,2.4-4.7,3.1-7.2c1-4.2,0.2-8.6-1.1-12.7
	c-4.5-14.7-13.9-27.4-26.7-36c-9-6-19.2-9.6-29.4-13.2c-7.1-2.5-14.9-4.8-22.1-3.8c1.5-1.7,3.2-3.3,4.9-4.7c2.1-1.8,4.4-2.8,7.1-2.5
	c2.8,0.4,5.4,0.8,8,1.2c5.4,1.7,10.6,3.6,15.8,5.6c3.4,1.3,6.8,2.8,10,4.5c3.2,2,6.3,4.1,9.2,6.5c8.7,6.6,17.8,12.6,27.4,17.9
	c11,6.1,22.5,11,34.1,16c1.2,0.6,2.6,1,4,1c1.4,0,2.7-1,3-2.3c0-0.7-0.1-1.4-0.5-2.1c-2-4.1-6.5-6.2-10.6-8.1
	c-17.1-8.3-32.1-20.2-46.9-32c-0.4-0.3-0.7-0.6-0.9-1L197.5,407.5z"/>
<circle class="st2" cx="337.6" cy="399.1" r="62.8"/>
<path class="st6" d="M400.1,648.9c11.8-3.7,23.7-7.5,34-14.2c7.2-4.7,13.5-10.8,20.1-16.5c5-4.2,10.1-8.2,14.6-12.9
	c4.1-4.4,7.9-9,11.4-13.8c8-10.5,16.3-20.8,24.9-30.9c4.6-5.4,9.4-10.9,15.8-13.9c11.4-5.3,24.8-1.7,36.8,1.9
	c18,5.5,35.9,11.3,52.8,19.7c9.6,4.8,18.9,10.1,28.5,14.7c17.7,8.3,36.5,14.1,55.2,19.8c1.4,0.6,2.9,0.7,4.4,0.4
	c1-0.5,1.9-1.2,2.6-2.2c2.4-3,4.4-6.4,5.8-10c0.6-0.9,0.3-2-0.5-2.6c-8-7.8-18.4-12.6-28.1-18.1c-7.7-4.4-15.1-9.4-22.5-14.3
	c-7.1-4.8-14.2-9.5-20.2-15.7c-3-3.1-5.7-6.5-9-9.3c-2.9-2.3-5.9-4.5-9.1-6.4c-14.3-9.1-27.9-19.2-40.7-30.2
	c-9.8-8.4-17.8-19.1-28.2-26.6c-6.4-4.6-13.9-8.8-21.7-8c-9.5,1-16.6,9-23.2,15.9c-22.4,23.2-50.5,39.8-75.5,60.2
	c-20.4,16.6-39.4,36.4-64.2,45.2c1.1,3.7,1.5,7.4,2.6,11c1.4,5.1,3.1,10,5.2,14.8c2.1,4.3,4.4,8.4,6.9,12.4l9.9,16.2
	c2,3.3,4.1,6.7,7,9.3C397.2,646.3,400.1,646.8,400.1,648.9z"/>
<path class="st7" d="M673.8,629.8c2.3,3.2,3,7.2,2,11c3.6,2.6,7.9,3.8,12.3,3.6c4.4-0.2,8.6-1.2,12.7-2.9c3.5-1.3,6.8-3,9.8-5.2
	c5.2-3.9,9-9.4,12-15.1c1.7-3.2,3.1-7.2,1-10.1c-0.8-1-1.9-1.8-3-2.3c-7.7-4.4-15.7-8.2-24-11.4c-2.3-1-4.7-1.6-7.2-1.6
	c-3.1,0.2-5.9,1.9-8.3,3.7c-5.5,4.3-9.9,9.7-12.9,16c-0.9,2-3.8,6.8-2.4,8.8c0.6,1,3,1.3,4,1.9C671.4,627.2,672.7,628.4,673.8,629.8
	z"/>
<path class="st6" d="M719.6,606.2c16.9,3.2,32.5,11.3,49.1,15.7c6.7,1.8,13.7,3,20.1,5.6s12.5,7.1,15.3,13.5
	c1.2,3.1,1.9,6.3,2.3,9.5c0.7,4.6,1.3,9.8-1.4,13.5c-2.9,4-8.3,4.9-13.2,5.5c-17.6,2.1-35.2,4.2-52.8,5.7c-3.6,0.2-7.1,0.6-10.6,1.3
	c-2.9,0.6-5.7,1.5-8.6,2.1c-3.7,0.9-7.5,1.4-11.3,2c-9.7,1.4-19.5,2.8-29.2,1.7c-4.4-0.5-9.4-1.9-11.3-5.9c-0.8-2.1-1.2-4.3-1-6.5
	c0-5.9-0.1-11.9,0-17.8c0.1-6.1,0.4-12.4,3.2-17.8c0.7-1.7,2-3,3.6-3.8c1-0.3,2.1-0.4,3.1-0.3c5.2,0.2,10.6,0.4,15.2,2.7
	c3.7,1.8,6.3-3.6,10.1-2c7.1,3.2,2.3-6.4,9.5-3.4c1.7-5.2,8.8-2.1,7.6-7.4s3.2-3,2.7-8.5c0-1.2-0.3-2.4-0.7-3.5
	C720.6,607.1,720.8,606,719.6,606.2z"/>
<path class="st4" d="M212.8,286.2c-3.9,2.3-8.7,1.8-13.2,1.7c-4-0.1-7.9,0.1-11.8,0.6c-1.4,0.1-2.8,0.5-4.1,1.1
	c-1.7,1.1-3,2.6-3.8,4.4c-1.6,3.1-2.7,6.4-3.2,9.8c-0.6,3.9-0.5,8.1-2.9,11.1c-3.3,4.2-8.4,3.5-13,4.3c-4,0.8-7.9,2.2-11.4,4.4
	c-7,4.2-11.8,11.3-13.2,19.4c-0.1,0.9-0.2,1.8-0.3,2.7c-0.1,2.6,0.2,5.2-0.2,7.7c-0.1,0.6-0.2,1.3-0.4,1.9c0,0.2-0.1,0.4-0.2,0.5
	c-0.1-1.2-0.3-2.3-0.5-3.5c-3-3.1-5.7-6.6-7.9-10.3c-0.6-0.6-1.1-1.4-1.4-2.2c-3.2-7.5-5.4-15.2-5.4-23.4c0-28.4,23-51.4,51.3-51.4
	C187.7,265.2,203.1,273,212.8,286.2L212.8,286.2z"/>
<path class="st6" d="M216.1,266.5c-2.6-6-8-10.2-13.6-13.5c-11-6.6-23.7-10.7-36.5-10.9c-6.5,0-12.9,0.7-19.3,2
	c-6.2,1.1-12.2,2.8-18.1,5.1c-9.6,4-18.1,10.3-24.8,18.3c-1.4,0.1-2.8,0.3-4.2,0.7c-5.4,1.4-10.3,4.3-14.8,7.7
	c-3.7,2.7-7.1,6-9.9,9.6c-3.3,4.7-5.5,10-6.7,15.6c-3.8,17.6,0.9,35.7,4.3,53.3s5.4,36.9-3,52.7c-3.2,6-7.7,11.1-11.1,16.9
	c-3.4,5.8-5.7,12.9-3.7,19.4c2.3,7.9,10,12.9,14.1,20c5.1,9.5,3.2,21.3-4.7,28.7c6.3,2.2,13.4-0.2,19.1-3.7
	c4.5-2.6,8.4-6.3,11.3-10.7c7.2-11.6,4-26.7,6.5-40.1c3.3-17.6,16.8-33.3,14.9-51.1c-1.2-12-9.2-22-15.4-32.2
	c-4.2-6.9-7.6-14.1-10.4-21.6c-2-5.4-3.6-11.1-2.6-16.8c0.3-1.7,0.9-3.4,1.6-5c0,0.2,0,0.4,0,0.6c0.1,5.2,1.3,10.3,3.4,15
	c7.4,15.2,27.2,20.8,35.6,35.5c2.4-2.7,5-5.5,6-9c0.9-3.1,0.4-6.4,0.6-9.6c0.4-9,5.8-17.5,13.5-22.1c3.5-2.1,7.4-3.6,11.4-4.4
	c4.6-0.8,9.7-0.2,13-4.3c2.4-3,2.3-7.3,2.9-11.1c0.5-3.4,1.6-6.8,3.2-9.8c0.8-1.8,2.1-3.3,3.8-4.4c1.3-0.6,2.7-1,4.1-1.1
	c3.9-0.5,7.9-0.7,11.8-0.6c4.6,0.1,9.5,0.5,13.4-1.8C217.4,280.5,218.6,272.5,216.1,266.5z"/>
<path class="st4" d="M774.9,211.3c0,0.1,0,0.3,0,0.4c-1.8,15.6-16.8,14.9-20.3,39.5c-1.4,9.6-16,11.4-25.6,14
	c-4.2-1.4-8.3-2.6-12.5-4.1c-9.6-3.5-2.9-8.7,1.2-14.3c13.5-18.3,16-43.4,31.3-60.2c5.6,10.6,14.5,19.2,25.3,24.5
	C774.4,211.2,774.7,211.3,774.9,211.3z"/>
<path class="st5" d="M775.2,202.4c0,2.4-0.1,4.7-0.4,7.1c-3.9,34.4-35,59.2-69.4,55.3c-34.4-3.9-59.2-35-55.3-69.4
	c3.9-34.4,35-59.2,69.4-55.3C751.2,143.6,775.2,170.5,775.2,202.4z"/>
<path class="st2" d="M800.5,209.4c7.2-0.4,14.1,2.5,20.7,5.2c26.3,11,52.9,22.1,76.4,38.2c11.6,8,22.3,17.1,33.1,26.2l44.1,37.5
	c8.5,7.2,17,14.5,23.8,23.2c4,5.4,7.7,11.1,10.9,17l6.5,11.2c2.7,4.4,5,8.9,7,13.6c3.4,8.6,4.6,18.7,11.4,24.9
	c4.6,4.2,10.8,6,16.4,8.7s11,7.7,10.9,13.9c0,4-2.4,7.6-4.2,11.2c-3.8,7.5-5.3,16-4.6,24.3l-72.1-55.1c-2.9-2.2-5.9-4.5-9.4-5.2
	c-4.6-1-9.2,0.7-13.7,2.3c-34.8,12.3-71.9,17.2-108.7,14.3c-16.3-1.3-32.8-4.2-47.1-12.2c-7.9-4.4-14.9-10.2-21.8-16
	c-8.7-7.2-17.3-14.5-25-22.8c-2-2.2-4.1-4.6-4.6-7.6c-0.4-2.1,0.1-4.3,0.3-6.5c1.3-15.2-11.3-27.8-15.2-42.5
	c-3.5-14.2,1.2-29.1,12.2-38.7c8.6,7.5,8.3,20.7,7.3,32.1c-1.3,15.3,2.9,22.9,1.6,38.2c5.4-0.2,4.5,3.3,6.8-1.6s2.8-10.5,3.2-15.9
	c1.6-19.6,3.6-39.2,5.8-58.8c1.1-9.8,2.4-19.6,3.7-29.3c0.8-6,0.7-11.5,3.8-16.8C784.4,215.3,791.8,209.8,800.5,209.4z"/>
<path class="st5" d="M809.9,227.3c4.6-1.4,9.5-0.1,14.1,1.2c8.1,2.4,16.2,5,24.3,7.6c6.6,2.2,13.2,4.5,18.8,8.7
	c5.8,4.3,10,10.2,14.2,16.1c3,4.2,6,8.5,8,13.2c2.6,6.3,3.3,13.1,4,19.9c0.5,2.9,0.4,5.9-0.1,8.8c-0.9,3.1-2.6,6-4.8,8.4
	c-3.4,4.1-7.4,7.7-11.9,10.6c-11.8,7.9-26,11.2-39.9,14.1c-12.4,2.6-24.8,5-37.5,5.8c-4.9,0.3-10.6,0-13.6-3.9
	c-0.9-1.2-1.5-2.5-2-3.9c-7.4-19.5-10.6-40.4-9.4-61.2c0.1-3.8,0.7-7.6,1.8-11.2c1-2.9,2.3-5.7,3.8-8.4c3.8-7.2,7.8-14.6,14.3-19.4
	c6.8-5,15.7-6.6,24.2-6.3"/>
<path class="st4" d="M856,301.4c-3.9,2.7-5.3,7.8-5.8,12.5c-2.1,20.1,6.2,39.9,5.6,60.1c-0.4,16-6.4,31.4-12.3,46.3
	c-10.1,25.5-15.3,53.1-17.3,80.4s-5,55.8-19.7,78.8c-3.3,5.2-7.2,10.1-10.5,15.3c-3.4,5.5-6.1,11.4-9.2,17.1
	c-8.9,16.9-20.4,32.3-34,45.7c-4,3.9-8.2,7.7-13.3,9.9c-6.6,2.9-14.2,3-20.9,0.2c-6.8-2.8-12.6-9.2-12.9-16.6
	c-0.2-6.6,3.7-12.6,7.7-17.9c13.4-18,28.9-34.3,46-48.8c3.1-2.6,6.4-5.3,8-9.1c1.8-4.3,1.1-9.2,1.3-13.9c0.4-7.5,3.3-14.5,5-21.8
	c7-29.5-5.4-61.7,4.7-90.3c2.2-6.3,5.6-12.4,6.4-19.1c0.6-4.7-0.6-9.9-3.5-13.4c-2.7-3.2-4.3-7.2-4.3-11.4c0-0.9,0-1.7,0.1-2.5
	c1.2-13.1,2.4-26.2,1.8-39.4s-3.3-26.3-9.3-38c-3.1-6-7.2-11.7-9.1-18.2c-3.1-10.6-0.2-22,4.4-32c3.6-7.8,8.5-15.3,15.2-20.6
	c12.6-10,31.4-11.1,45.1-2.9c10.1,6.1,17.1,16.3,22.7,26.6C851.8,286.3,856.1,292.8,856,301.4z"/>
<path class="st5" d="M858.2,301.4c-3.9,2.7-5.3,7.8-5.8,12.5c-2.1,20.1,6.2,39.9,5.6,60.1c-0.4,16-6.4,31.4-12.3,46.3
	c-10.1,25.5-15.3,53.1-17.3,80.4s-5,55.8-19.7,78.8c-3.3,5.2-7.2,10.1-10.5,15.3c-3.4,5.5-6.1,11.4-9.2,17.1
	c-8.9,16.9-20.4,32.3-34,45.7c-4,3.9-8.2,7.7-13.3,9.9c-6.6,2.9-14.2,3-20.9,0.2c-6.8-2.8-12.6-9.2-12.9-16.6
	c-0.3-6.6,3.7-12.6,7.7-17.9c13.4-18,28.9-34.3,46-48.8c3.1-2.6,6.4-5.3,8-9.1c1.8-4.3,1.1-9.2,1.3-13.9c0.4-7.5,3.3-14.5,5-21.8
	c7-29.5-5.4-61.7,4.7-90.3c2.2-6.3,5.6-12.4,6.4-19.1c0.5-4.7-0.6-9.9-3.5-13.4c-2.8-3.1-4.4-7.2-4.5-11.4c0-0.9,0-1.7,0.1-2.5
	c1.2-13.1,2.4-26.2,1.8-39.4s-3.3-26.3-9.3-38c-3.1-6-7.2-11.7-9.1-18.2c-3.1-10.6-0.2-22,4.4-32c3.6-7.8,8.5-15.3,15.2-20.6
	c12.6-10,31.4-11.1,45.1-2.9c10.1,6.1,17.1,16.3,22.7,26.6C854.1,286.3,858.3,292.8,858.2,301.4z"/>
<path class="st9" d="M959.4,562.5l-0.9,0.3"/>
<path class="st9" d="M784.2,607.2c0-0.3,0.1-0.7,0.2-1"/>
<path class="st2" d="M998.6,538.5c2.9-3.3,7.3-4.8,11.6-5.9c6.9-1.8,13.9-2.9,21-3.4c4.4-0.5,8.9-0.2,13.2,0.8
	c4.3,1.2,8.3,3.7,10.5,7.6c1.9,3.4,2.2,7.4,2.5,11.3c0.5,8,1,16-0.3,23.9c-0.8,5-2.4,9.8-3.5,14.8c-3.3,16.3-0.4,33.1-0.7,49.7
	c-0.1,3.5-0.3,7.2-1.8,10.4c-1.6,3.4-4.4,6-7.2,8.6c-3.1,2.8-6.2,5.6-9.9,7.4c-5.5,2.8-11.8,3.2-17.9,3.4c-3.7,0.1-7.6,0.1-11-1.2
	s-6.5-4.5-6.8-8.2c-0.4-6.3,6.7-10.5,8.8-16.5c1.6-4.8-0.2-10.1-2.8-14.4c-4.1-6.9-10-12.6-17.1-16.5c-2.6-1.4-5.4-2.7-7.6-4.7
	s-3.7-5.2-2.7-8c1.1-3.4,5.1-5,8.7-5.3s7.3-0.1,10.5-1.7c2.9-1.4,4.8-4.1,6.2-7c2.9-6.1,3.3-13.1,1.1-19.6c-0.9-2.4-2.1-4.7-3.7-6.8
	c-1.5-1.9-4.6-3.5-5.7-5.6C992,547.7,996.1,541.5,998.6,538.5z"/>
<path class="st4" d="M940.5,393.6c-16.5-14.6-39.5-18.6-61.2-23c-11.1-2.3-22.2-4.8-33.2-7.6c-7.2-1.8-14.5-3.8-22-4.3
	s-15.2,0.5-21.6,4.4c-6.4,3.8-11.3,10.7-11.3,18.2c0,3,0.7,5.9,0.5,8.9c-0.3,4.8-3,9-4.8,13.5c-2.8,7.1-3.2,14.8-1.2,22.2
	c3.2,11.7,12.4,22,11.6,34c-1.3,20.2-0.9,41.2,3.2,61s9.3,39.6,9.2,59.8s-6.2,41.5-21.3,54.9c10.2,9.6,22.7,16.4,36.3,19.8
	c11.6,2.9,25.5,2.6,33.7-6c1.9-2,3.5-4.7,3.1-7.4c-0.4-1.7-1.1-3.4-2.2-4.8c-5.7-10.2-5-22.8-2.5-34.1s6.8-22.4,7.9-34.1
	c0.8-8.4-0.1-17,1.5-25.3c1.2-6.4,3.9-12.4,5.5-18.7c4.8-18.7-0.2-38.2-5.2-56.8c4.2,9.5,12,17,20.1,23.5
	c12.3,9.8,27.2,18.5,42.9,16.8c13.9-1.6,25.8-11.2,34-22.6c0.1-13.2,4.6-25.6,3.8-38.7c-0.5-5.8-1.6-11.5-3.1-17
	c-1.5-6.2-3.1-12.5-6-18.3C954.6,404,946.9,399.3,940.5,393.6z"/>
<path class="st5" d="M943.9,393.6c-16.5-14.6-39.5-18.6-61.2-23c-11.1-2.3-22.2-4.8-33.2-7.6c-7.2-1.8-14.5-3.8-22-4.3
	s-15.2,0.5-21.6,4.4c-6.4,3.8-11.3,10.7-11.3,18.2c0,3,0.7,5.9,0.5,8.9c-0.3,4.8-3,9-4.8,13.5c-2.8,7.1-3.2,14.8-1.2,22.2
	c3.2,11.7,12.4,22,11.6,34c-1.3,20.2-0.9,41.2,3.2,61s9.3,39.6,9.2,59.8s-6.3,41.4-21.4,54.8c10.2,9.6,22.7,16.4,36.3,19.8
	c11.6,2.9,25.5,2.6,33.7-6c1.9-2,3.5-4.7,3.1-7.4c-0.4-1.7-1.1-3.4-2.2-4.8c-5.7-10.2-5-22.8-2.5-34.1s6.8-22.4,7.9-34.1
	c0.8-8.4-0.1-17,1.5-25.3c1.2-6.4,3.9-12.4,5.5-18.7c4.8-18.7-0.2-38.2-5.2-56.8c4.2,9.5,12,17,20.1,23.5
	c12.3,9.8,27.2,18.5,42.9,16.8c13.9-1.6,25.8-11.2,34-22.6c0.1-13.2,4.6-25.6,3.8-38.7c-0.5-5.8-1.6-11.5-3.1-17
	c-1.5-6.2-3.1-12.5-6-18.3C958.1,404,950.3,399.3,943.9,393.6z"/>
<path class="st2" d="M829.2,646c-7.3-4.5-13.7-10.4-18.6-17.4c-1.8-2.5-3.4-5.2-5.6-7.3s-5.2-3.7-8.3-3.4c-3.5,0.4-6.2,3-8.5,5.7
	c-5.9,7.3-9.7,16.2-16.2,23c-7.6,7.8-18.1,12-28.6,14.7s-21.4,4.1-31.7,7.5c-3.2,1.1-6.7,2.5-8.4,5.4c-2.2,3.7-1,8.6,1.3,12.3
	c4.3,7,11.7,11.5,19.5,14.2s15.9,3.8,24,5.3c14.3,2.8,28.9,7.3,43.1,4.1c5.7-1.3,11-3.7,16.7-4.8c13-2.4,26.4,2.5,39.5,0.5
	c6.3-1,12.3-3.5,18-6.3c2.9-1.2,5.5-3,7.7-5.2c2.1-2.3,3.3-5.6,2.5-8.6c-0.5-1.7-1.6-3.2-2.4-4.8c-1.2-2.5-1.4-5.3-1.7-8.1
	c-1.1-10.5-2.9-21-5.5-31.3c-0.9-3.6-2.2-7.6-5.6-9.2c-0.7-0.4-1.5-0.5-2.2-0.2c-1.2,0.5-1.6,1.9-1.9,3.1
	c-3,10.1-13.6,15.9-23.7,12.9c-3.7-1.1-7.1-3.3-9.5-6.4"/>
<path class="st4" d="M775.2,202.4c0,2.4-0.1,4.7-0.4,7.1c-6.4,1-12.9-1.2-17.4-5.8c-2.1-2.2-3.7-5-5.8-7.2s-5-4.1-8-3.9
	c-2.6,0.2-4.8,1.8-6.5,3.7c-2.3,2.4-3.9,5.4-4.9,8.6c-0.7,2.3-1,4.9-2.9,6.4s-4.2,1.4-6.4,1.3c-2.9-0.1-5.9-0.2-8.4-1.6
	c-4.8-2.6-6.4-8.5-8.2-13.7c-3-8.7-9.8-25.1-20.2-26.8c-5-0.8-11.1,1.8-15,4.7c-5.9,4.3-10.3,7.1-17.9,6.9l0,0
	c11.2-32.8,46.9-50.3,79.7-39C758.3,151.7,775.3,175.6,775.2,202.4L775.2,202.4z"/>
<path class="st6" d="M653.1,179.8c-1.8,0-3.6-0.2-5.3-0.8c-4.8-1.9-7.2-7.5-7.6-12.7c-0.6-7.9,2-15.7,4.7-23.2
	c0.6-1.6,1.2-3.4,2.7-4.3c1.2-0.6,2.5-0.9,3.8-0.9c7.2-1,13.4-5.4,18.7-10.3s10.1-10.5,16-14.6c15.7-10.8,39-8.8,52.6,4.6
	c5.4,5.3,10,12.4,17.5,13.7c4.3,0.7,8.9-0.8,13,0.8c3,1.2,5.1,3.8,6.9,6.5c5.6,8.8,8.2,19.1,9.1,29.5s0.1,20.8-0.7,31.1
	c0,1.5-0.4,3.1-1.2,4.4c-0.6,0.8-1.4,1.4-2.3,1.8c-7.8,3.8-17.2,2.3-23.3-3.9c-2.1-2.2-3.7-4.9-5.8-7.2s-5-4.1-8-3.9
	c-2.5,0.2-4.8,1.8-6.5,3.7c-2.3,2.4-3.9,5.4-4.9,8.6c-0.7,2.3-1,4.9-2.9,6.4s-4.2,1.4-6.4,1.3c-2.9-0.1-5.9-0.2-8.4-1.6
	c-4.8-2.6-6.4-8.5-8.2-13.7c-3-8.7-9.7-25.1-20.2-26.8c-5-0.8-11.1,1.8-15,4.7C665.1,177.1,660.7,179.9,653.1,179.8z"/>
<path class="st4" d="M321.9,553.2c-0.7,4.6-4.9,8.1-7.8,11.7c-8,9.7-16.1,19.4-25.1,28.3c-9.6,9.5-20.1,17.9-30.7,26.3l-13.7,10.9
	c-1.7,1.5-3.7,2.7-5.8,3.5c-2.5,0.6-5.2,0.3-7.5-0.9c0.2-0.4,0.4-0.8,0.6-1.1l16.4-27.5c3.2-5.4,5.3-10.3,9-15.3
	c5.5-7.6,11.1-15.2,17.9-21.6c8.6-8.1,19.6-14,29.9-19.9c1.5-4.4,7.7-5.7,11.9-3.6c1.6,0.8,3,1.9,4.1,3.2
	C321.9,549.1,322.2,551.2,321.9,553.2z"/>
<path class="st6" d="M249.5,605.5L233.1,633c-0.7,1.1-1.4,2.4-1.1,3.6c0.4,1.1,1.1,2,2,2.6c6.3,5.1,13.2,10.5,15.2,18.3
	c1.4,5.6,0,11.6,1.3,17.2c2.3,10.1,12.5,16.3,22.1,20.2c21.6,8.7,45.6,12.1,68.5,8s44.7-15.8,59.6-33.7c4.6-5.5,8.5-11.6,12.8-17.3
	c12-15.8,27.2-28.7,42.3-41.5c19.5-16.5,30.9-41.1,48-60c3.1-3.5,6.5-7,11-8.1c2.5-0.6,6,0.3,6.1,2.9c0.2,5,4.2,9.1,7,13.3
	c10.4,15.8,21.2,32.2,37.2,42.3c8.8,5.5,18.7,8.9,28.6,12c25.1,7.8,50.7,14,76.2,20.1c1.3-2.6,2.8-5,4.6-7.3c2.7-3.2,6.1-5.7,8.8-9
	c4.9-5.9,6.6-13.7,8.1-21.2c-15.3-9.3-30.9-19-46-28.7c-7.6-4.9-15.2-9.9-21.3-16.5c-4-4.3-7.4-9.3-11.4-13.7
	c-4.1-4.2-8.5-8.2-13.2-11.7l-36-28.8c-10.3-8.3-20.9-17-31-25.6c-5.7-4.8-12-9.9-19.4-10.1c-6.4-0.2-12.2,3.2-17.7,6.5
	c-32.2,19.3-64.9,37.7-98,55.2c-6.7,3.5-13.5,7.1-19.9,11.1c-12.5,7.9-23.5,17.8-32.7,29.4c-1.7,2.1-3.8,4.5-6.5,4.2
	c-0.7-0.1-1.4-0.4-2.1-0.7c-4.1-2.2-6.7-6.5-9-10.5s-5-8.3-9.1-10.4s-10.4-0.9-11.9,3.6c-10.3,6-21.3,11.9-29.9,20
	c-6.8,6.4-12.4,14-17.9,21.6C254.8,595.3,252.7,600.2,249.5,605.5z"/>
<path class="st4" d="M222.7,438.1c0,0,16.5,7.3,28.3,15.6"/>
<path class="st6" d="M1047.5,453.1c0.3,9.3,0.5,18.7,0.4,28c-0.1,4.9-0.3,10.1-2.6,14.4c-1.7,3.1-4.4,5.5-7,7.9l-16.5,14.9
	c-5.1,4.6-10.6,9.5-17.4,10.6c-7.8,1.3-15.4-2.5-22.9-5c-7.5-2.5-15.4-3.9-23.4-3.9c-4.6,0-9.2,0.4-13.7-0.4
	c-3.3-0.6-6.4-1.5-9.5-2.7l-14.9-5.2c0.4-3.8,4-6.1,7-8.5c10.7-8.6,15.3-22.5,18.7-35.8c2.7-10.4,4.7-20.9,5.8-31.6
	c0.5-5.3,0.7-10.6-0.4-15.8c-1-4.2-2.5-8.3-4.4-12.1l-5.2-11.8c-3-6.7-9-9.6-15.1-13.5c9.2,3.5,20.5,4.9,27.5,11.8
	c1.4,1.5,3,2.8,4.7,3.8c1.9,0.9,4.1,1,6.2,1.3c10.4,1.6,19.3,8.1,27.9,14.2c10.5,7.4,21.3,14.4,32.5,20.9c5,2.9,10.2,5.8,14.4,9.8
	s7.5,9.3,7.8,15.2"/>
<path class="st4" d="M150.8,436.7c-13.1,2.6-19.9,18-19.2,31.3c0.7,11.9,5.6,23.2,13.8,31.8c5.5,5.8,12.3,10.2,17.2,16.4
	c7.3,9.2,9.8,21.3,16.4,31c4.7,7.1,11.4,12.6,18,17.9c15.2,12.2,31,23.7,47.2,34.5c6.6,4.4,13.8,8.9,21.8,8.7
	c7.5-0.2,14.4-4.5,19.2-10.2s8-12.6,11.2-19.4c11.4-24.9,22.9-50.1,28.4-76.9c1.7-8.4,2.9-17.1,6.7-24.8c3-6,7.4-11.1,11.4-16.6
	c9.4-12.9,15.9-27.5,19.3-43.1c2.2-10.1,2.9-21-0.7-30.7s-12.3-18.1-22.6-18.9c-8.2-0.6-16.2,3.6-21.7,9.7s-8.7,13.9-11,21.8
	c-3.2,11.4-4.4,23.2-3.6,35c0.6,9.5,2.6,19.1,0.9,28.5c-1.2,6.6-4,12.8-6.9,18.9c-7.4,15.7-14.9,31.7-26.1,45
	c-3.6,4.3-8.6,8.7-14.2,7.7c-7.7-1.4-9.7-11.2-13.5-18c-4.7-8.4-13.5-13.5-20.4-20.1c-9.9-9.5-15.8-22.2-22.8-34s-16.1-23.4-29-27.9
	s-30.1,1.3-33.5,14.6"/>
<path class="st4" d="M160.7,445.8c-13.1,2.6-29.8,4.3-29,17.6c0.7,11.9,5.6,23.2,13.8,31.8c5.5,5.8,12.3,10.2,17.2,16.4
	c7.3,9.2,9.8,21.3,16.4,31c4.7,7.1,11.4,12.6,18,17.9c15.2,12.2,31,23.7,47.2,34.5c6.6,4.4,13.8,8.9,21.8,8.7
	c7.5-0.2,14.4-4.6,19.2-10.2s8-12.6,11.2-19.4c11.4-24.9,22.9-50.1,28.4-76.9c1.7-8.4,2.9-17.1,6.7-24.8c3-6,7.4-11.1,11.4-16.6
	c9.4-12.9,15.9-27.5,19.3-43.1c2.2-10.1,2.9-21-0.7-30.7c-3.6-9.7-12.3-18.1-22.6-18.9c-8.2-0.6-16.2,3.6-21.7,9.7
	c-5.5,6.1-8.7,13.9-11,21.8c-3.2,11.4-4.4,23.2-3.6,35c0.6,9.5,2.6,19.1,0.9,28.5c-1.2,6.6-4,12.8-6.9,18.9
	c-7.4,15.7-14.9,31.7-26.1,45c-3.6,4.3-8.6,8.7-14.2,7.7c-7.7-1.4-9.7-11.2-13.5-18c-4.7-8.4-13.5-13.5-20.4-20.1
	c-9.9-9.5-15.8-22.2-22.8-34s-16.1-23.4-29-27.9s3.3,24.4-0.1,37.7"/>
<path class="st7" d="M150.8,434.4c-13.1,2.6-19.9,18-19.2,31.3c0.7,11.9,5.6,23.2,13.8,31.9c5.5,5.8,12.3,10.2,17.2,16.4
	c7.3,9.2,9.8,21.3,16.4,31c4.7,7.1,11.4,12.6,18,17.9c15.2,12.2,31,23.7,47.2,34.5c6.6,4.4,13.8,8.9,21.8,8.7
	c7.5-0.2,14.4-4.5,19.2-10.2s8-12.6,11.2-19.4c11.4-24.9,22.9-50.1,28.4-76.9c1.7-8.4,2.9-17.1,6.7-24.8c3-6,7.4-11.1,11.4-16.6
	c9.4-12.9,15.9-27.5,19.3-43.1c2.2-10.1,2.9-21-0.7-30.7c-3.6-9.7-12.3-18.1-22.6-18.9c-8.2-0.6-16.2,3.6-21.7,9.7
	s-8.7,13.9-11,21.8c-3.2,11.4-4.4,23.2-3.6,35c0.6,9.5,2.6,19.1,0.9,28.5c-1.2,6.6-4,12.8-6.9,18.9c-7.4,15.7-14.9,31.7-26.1,45
	c-3.6,4.3-8.6,8.7-14.2,7.7c-7.7-1.4-9.7-11.2-13.5-18c-4.7-8.4-13.5-13.5-20.4-20.1c-9.9-9.5-15.8-22.2-22.8-34s-16.1-23.4-29-27.9
	s-30.1,1.3-33.5,14.6"/>
<g class="st10">
	<path d="M100.7,354.5c-4.2-6.9-7.6-14.1-10.4-21.6l-0.3-1c-2.1-2.3-3.9-4.8-5.3-7.6c-2.1-4.7-3.3-9.8-3.4-15c0-0.2,0-0.4,0-0.6
		c-0.7,1.6-1.2,3.3-1.6,5c-1,5.6,0.7,11.4,2.6,16.8c2.8,7.5,6.3,14.8,10.4,21.6c6.2,10.4,14.1,20.4,15.4,32.3
		c1.9,17.8-11.6,33.5-14.9,51.1c-2.5,13.4,0.7,28.5-6.5,40.1c-2.9,4.4-6.7,8-11.3,10.7c-2.8,1.8-6,3.2-9.2,4c-0.6,0.7-1.2,1.4-1.9,2
		c6.3,2.2,13.4-0.2,19.1-3.7c4.5-2.6,8.4-6.3,11.3-10.7c7.2-11.6,4-26.7,6.5-40.1c3.3-17.6,16.8-33.3,14.9-51.1
		C114.8,374.8,106.9,364.8,100.7,354.5z"/>
	<path d="M216.1,266.5c-2.6-6-8-10.2-13.6-13.5c-7.1-4.2-14.8-7.3-22.8-9.2c5.2,1.8,10.1,4.1,14.8,6.9c5.6,3.3,11,7.5,13.6,13.5
		c2.6,6,1.3,14-4.3,17.3c-3.9,2.4-8.8,1.9-13.4,1.8c-3.9-0.1-7.9,0.1-11.8,0.6c-1.4,0.1-2.8,0.5-4.1,1.1c-1.7,1.1-3,2.6-3.8,4.5
		c-1.6,3.1-2.7,6.4-3.2,9.8c-0.6,3.8-0.5,8-2.9,11.1c-3.3,4.2-8.4,3.5-13,4.3c-4,0.8-7.9,2.2-11.4,4.4c-7.7,4.6-13.1,13.1-13.5,22.1
		c-0.1,3.2,0.3,6.5-0.6,9.6c-0.6,1.8-1.4,3.5-2.6,5c1.8,1.9,3.3,4,4.6,6.2c2.4-2.7,5-5.5,6-9c0.9-3.1,0.4-6.4,0.6-9.6
		c0.4-9,5.8-17.5,13.5-22.1c3.5-2.1,7.4-3.6,11.4-4.3c4.6-0.8,9.7-0.2,13-4.4c2.4-3,2.3-7.3,2.9-11.1c0.5-3.4,1.6-6.8,3.2-9.8
		c0.8-1.8,2.1-3.3,3.8-4.4c1.3-0.6,2.7-1,4.1-1.1c3.9-0.5,7.9-0.7,11.8-0.6c4.6,0.1,9.5,0.5,13.4-1.8
		C217.4,280.5,218.6,272.5,216.1,266.5z"/>
</g>
<path class="st4" d="M150.6,362.1c0,0,11.8,10.2,34.2,4C184.8,366.1,170.9,371.5,150.6,362.1z"/>
<path class="st9" d="M89.8,617.3c0,0,1.6-1.8-1.4-2.5v-2.9h1.8c0-7.2-5.1-13.5-12.2-15v-3.5h0.5v-4.6H66.9v4.6h0.3v3.6
	c-7,1.6-12,7.8-12,15h1.6v2.8c0,0-3.8,1.8,0,5s3.2,5.5,3.2,5.5s-1.6,6-4.8,6.8v55.6c0,6.8,5.5,12.4,12.3,12.4c0,0,0,0,0,0h9.8
	c6.8,0,12.4-5.5,12.4-12.4v-55.6c0,0-5.6-4.2-4.6-6.8C86.5,622.5,88.1,619.8,89.8,617.3z"/>
</svg>
